<svg xmlns="http://www.w3.org/2000/svg" xmlns:xlink="http://www.w3.org/1999/xlink" viewBox="0,0,256,256" width="48px" height="48px"><defs><linearGradient x1="24" y1="4" x2="24" y2="44" gradientUnits="userSpaceOnUse" id="color-1"><stop offset="0" stop-color="#ed3333"></stop><stop offset="1" stop-color="#000000"></stop></linearGradient></defs><g fill="url(#color-1)" fill-rule="nonzero" stroke="none" stroke-width="1" stroke-linecap="butt" stroke-linejoin="miter" stroke-miterlimit="10" stroke-dasharray="" stroke-dashoffset="0" font-family="none" font-weight="none" font-size="none" text-anchor="none" style="mix-blend-mode: normal"><g transform="scale(5.33333,5.33333)"><path d="M22.923,4.028c-10.095,0.53 -18.365,8.8 -18.895,18.895c-0.604,11.535 8.569,21.077 19.972,21.077v-3.121c0,-1.03 -0.786,-1.864 -1.809,-1.987c-7.659,-0.921 -13.542,-7.613 -13.174,-15.6c0.351,-7.639 6.637,-13.924 14.275,-14.275c8.606,-0.397 15.708,6.464 15.708,14.983c0,0 -0.001,0.239 -0.033,0.662c-0.065,1.492 -0.345,2.926 -0.815,4.274c-1.36,4.625 -4.902,11.364 -14.152,15.064c11.046,0 20,-8.954 20,-20c0,-11.403 -9.542,-20.576 -21.077,-19.972z"></path></g></g></svg>